<?xml version="1.0" encoding="iso-8859-1"?>
<!-- Generator: Adobe Illustrator 19.0.0, SVG Export Plug-In . SVG Version: 6.00 Build 0)  -->
<svg version="1.1" id="Layer_1" xmlns="http://www.w3.org/2000/svg" xmlns:xlink="http://www.w3.org/1999/xlink" x="0px" y="0px"
	 viewBox="0 0 284.382 284.382" style="enable-background:new 0 0 284.382 284.382;" xml:space="preserve">
<g>
	<g>
		<path d="M268.476,76.962l0.021-0.005L249.098,7.832C247.8,3.197,243.578,0,238.766,0H45.38c-4.817,0-9.05,3.213-10.338,7.859
			l-19.168,69.13l0.016,0.005c-0.263,0.939-0.408,1.894-0.408,2.859c0,1.91,0.51,3.82,1.524,5.515l115.92,193.697
			c0.005,0.011,0.011,0.016,0.016,0.027l0.043,0.075c0.021,0.038,0.054,0.064,0.075,0.097c0.413,0.671,0.907,1.271,1.448,1.835
			c0.139,0.139,0.274,0.279,0.413,0.413c0.595,0.553,1.234,1.051,1.942,1.454c0.054,0.032,0.118,0.048,0.172,0.08
			c0.66,0.359,1.363,0.638,2.092,0.853c0.193,0.059,0.386,0.113,0.585,0.161c0.794,0.188,1.615,0.322,2.462,0.322
			c0,0,0.005,0,0.011,0c0.853,0,1.668-0.134,2.468-0.322c0.199-0.048,0.392-0.102,0.585-0.161c0.735-0.22,1.448-0.499,2.108-0.864
			c0.048-0.027,0.102-0.043,0.156-0.07c0.708-0.402,1.347-0.907,1.942-1.454c0.145-0.134,0.279-0.274,0.418-0.418
			c0.547-0.563,1.046-1.169,1.459-1.845c0.021-0.032,0.048-0.054,0.07-0.086l0.038-0.064c0.005-0.005,0.005-0.011,0.011-0.016
			l58.802-98.254c2.5-4.179,1.84-9.522-1.604-12.966c-0.054-0.054-0.102-0.102-0.156-0.156c-4.887-4.887-13.074-3.879-16.625,2.055
			l-28.69,47.944l22.896-127.122h53.18l-21.056,35.182c-3.863,6.459-1.363,14.243,5.869,16.319
			c4.844,1.389,9.785-0.692,12.237-4.791l31.083-51.936c1.014-1.695,1.524-3.605,1.524-5.515
			C268.899,78.877,268.744,77.911,268.476,76.962z M132.808,21.459h16.765l13.948,47.671H120.33L132.808,21.459z M53.545,21.459
			h57.08l-12.478,47.67H40.321L53.545,21.459z M45.138,90.588h53.577l22.671,127.417L45.138,90.588z M142.255,212.769
			L120.518,90.588h43.749L142.255,212.769z M185.876,69.129l-13.948-47.671h58.706l13.38,47.671H185.876z"/>
	</g>
</g>
<g>
</g>
<g>
</g>
<g>
</g>
<g>
</g>
<g>
</g>
<g>
</g>
<g>
</g>
<g>
</g>
<g>
</g>
<g>
</g>
<g>
</g>
<g>
</g>
<g>
</g>
<g>
</g>
<g>
</g>
</svg>
