<?xml version="1.0" encoding="utf-8"?>
<svg viewBox="84.353 58.884 28.313 28.313" xmlns="http://www.w3.org/2000/svg">
  <path d="M 108.638 63.142 C 106.106 61.416 103.919 60.495 102.078 59.804 C 100.466 59.689 98.51 59.689 97.589 61.646 C 96.899 63.257 98.164 64.984 98.855 65.329 C 99.43 65.559 101.157 66.596 101.848 67.056 C 102.768 67.632 103.229 70.049 102.538 71.2 C 101.847 72.351 101.272 72.581 99.775 72.697 C 100.581 73.847 102.192 74.078 103.343 73.042 C 104.839 71.776 104.263 70.51 103.458 68.553 C 102.653 66.597 102.998 64.64 104.034 63.949 C 105.07 63.257 106.221 62.682 108.638 63.142 Z" fill-rule="evenodd" clip-rule="evenodd" fill="#0c0e0f"/>
  <path d="M 98.625 58.884 C 95.632 59.46 93.445 60.38 91.719 61.186 C 90.453 62.222 89.072 63.488 89.877 65.675 C 90.453 67.286 92.524 67.632 93.33 67.286 C 93.79 67.171 95.862 66.596 96.553 66.48 C 97.704 66.25 99.775 67.631 100.006 68.782 C 100.351 70.163 100.121 70.854 99.2 71.889 C 100.466 72.119 101.847 71.199 101.962 69.587 C 102.077 67.63 100.811 67.17 98.855 66.364 C 96.899 65.558 95.862 63.947 95.978 62.681 C 96.208 61.416 96.668 60.265 98.625 58.884 L 98.625 58.884 Z" fill-rule="evenodd" clip-rule="evenodd" fill="#0c0e0f"/>
  <path d="M 88.611 62.912 C 86.885 65.444 85.964 67.631 85.274 69.472 C 85.159 71.083 85.044 73.04 87.115 73.961 C 88.726 74.652 90.453 73.385 90.798 72.58 C 91.028 72.12 92.064 70.278 92.409 69.703 C 93.1 68.782 95.516 68.322 96.667 69.012 C 97.818 69.703 98.048 70.278 98.163 71.775 C 99.199 70.969 99.544 69.358 98.509 68.207 C 97.243 66.711 95.977 67.286 94.02 68.092 C 92.063 68.898 90.106 68.437 89.416 67.402 C 88.726 66.365 88.151 65.329 88.611 62.912 L 88.611 62.912 Z" fill-rule="evenodd" clip-rule="evenodd" fill="#0c0e0f"/>
  <path d="M 84.353 72.926 C 84.813 75.803 85.734 77.99 86.655 79.83 C 87.691 81.098 88.957 82.478 91.144 81.672 C 92.755 81.098 93.101 79.026 92.755 78.219 C 92.64 77.645 92.065 75.688 91.835 74.996 C 91.72 73.846 93.101 71.774 94.252 71.544 C 95.633 71.199 96.324 71.429 97.36 72.35 C 97.59 70.969 96.669 69.703 95.058 69.588 C 93.102 69.473 92.641 70.739 91.836 72.696 C 90.915 74.653 89.304 75.688 88.153 75.458 C 86.885 75.226 85.734 74.881 84.353 72.926 L 84.353 72.926 Z" fill-rule="evenodd" clip-rule="evenodd" fill="#0c0e0f"/>
  <path d="M 88.381 82.937 C 90.798 84.664 92.985 85.585 94.941 86.275 C 96.553 86.39 98.509 86.39 99.43 84.433 C 100.121 82.822 98.855 81.097 98.049 80.751 C 97.589 80.521 95.747 79.485 95.172 79.024 C 94.251 78.448 93.791 76.032 94.366 74.879 C 95.172 73.729 95.747 73.383 97.243 73.383 C 96.437 72.233 94.826 72.003 93.56 73.038 C 92.179 74.305 92.754 75.57 93.56 77.527 C 94.366 79.484 93.905 81.439 92.87 82.131 C 91.834 82.822 90.798 83.398 88.381 82.937 L 88.381 82.937 Z" fill-rule="evenodd" clip-rule="evenodd" fill="#0c0e0f"/>
  <path d="M 98.394 87.197 C 101.271 86.621 103.458 85.701 105.3 84.894 C 106.566 83.859 107.947 82.593 107.141 80.406 C 106.566 78.795 104.494 78.449 103.688 78.795 C 103.112 78.91 101.156 79.486 100.465 79.6 C 99.315 79.83 97.243 78.45 96.898 77.299 C 96.668 75.918 96.898 75.227 97.819 74.192 C 96.438 73.962 95.172 74.881 95.056 76.495 C 94.941 78.45 96.207 78.911 98.163 79.716 C 100.12 80.523 101.156 82.134 100.926 83.4 C 100.696 84.666 100.351 85.816 98.394 87.197 L 98.394 87.197 Z" fill-rule="evenodd" clip-rule="evenodd" fill="#0c0e0f"/>
  <path d="M 108.408 83.168 C 110.135 80.637 111.055 78.449 111.746 76.607 C 111.861 74.996 111.861 73.04 109.905 72.119 C 108.293 71.429 106.567 72.695 106.221 73.384 C 105.991 73.96 104.955 75.802 104.494 76.378 C 103.919 77.298 101.387 77.759 100.351 77.067 C 99.2 76.378 98.855 75.801 98.855 74.305 C 97.704 75.11 97.359 76.721 98.51 77.873 C 99.776 79.369 101.042 78.793 102.998 77.988 C 104.955 77.181 106.912 77.642 107.602 78.677 C 108.292 79.6 108.868 80.752 108.408 83.168 L 108.408 83.168 Z" fill-rule="evenodd" clip-rule="evenodd" fill="#0c0e0f"/>
  <path d="M 112.666 73.155 C 112.091 70.278 111.17 68.091 110.364 66.249 C 109.328 64.983 107.947 63.602 105.876 64.408 C 104.264 64.984 103.919 67.055 104.264 67.861 C 104.379 68.437 104.955 70.393 105.07 71.084 C 105.3 72.235 103.919 74.307 102.653 74.538 C 101.387 74.882 100.696 74.653 99.66 73.731 C 99.43 75.112 100.35 76.379 101.962 76.495 C 103.919 76.608 104.379 75.343 105.185 73.386 C 105.991 71.43 107.602 70.394 108.868 70.624 C 110.134 70.739 111.285 71.199 112.666 73.155 L 112.666 73.155 Z" fill-rule="evenodd" clip-rule="evenodd" fill="#0c0e0f"/>
</svg>