<?xml version="1.0" standalone="no"?>
<!DOCTYPE svg PUBLIC "-//W3C//DTD SVG 1.0//EN" "http://www.w3.org/TR/2001/REC-SVG-20010904/DTD/svg10.dtd">
<svg xmlns="http://www.w3.org/2000/svg" xmlns:xlink="http://www.w3.org/1999/xlink" id="body_1" width="1024" height="768">

<g transform="matrix(1 0 0 1 0 0)">
	<g>
		<g transform="matrix(0.65642 0 0 0.65642 -58.9695 -91.8428)">
            <path d="M187.21005 195.46463L187.21005 181.90562L164.83606 181.90562L164.83606 177.47662L186.37006 177.47662C 177.98006 144.82462 149.31206 141.36563 149.31206 141.36563L149.31206 141.36563L149.31206 169.31464L174.06606 169.31464C 167.91205 157.96764 158.12405 153.95663 158.12405 153.95663L158.12405 153.95663L158.12405 162.25864L160.78006 162.25864L160.78006 161.01263C 160.78006 161.01263 164.97507 163.36464 166.09306 166.13063L166.09306 166.13063L153.22906 166.13063L153.22906 147.86864C 153.22906 147.86864 172.94707 153.12663 179.79907 173.18863L179.79907 173.18863L140.78308 173.18863L140.78308 169.86862L144.97708 169.86862L144.97708 165.85663L141.06409 165.85663L141.06409 162.53462L145.39809 162.53462L145.39809 158.38463L140.78308 158.38463L140.78308 153.95763L145.11809 153.95763L145.11809 140.67462C 145.11809 140.67462 142.59709 139.84462 138.4011 139.84462L138.4011 139.84462L138.3501 139.84462C 134.15509 139.84462 131.6201 140.67462 131.6201 140.67462L131.6201 140.67462L131.6201 153.95763L135.9561 153.95763L135.9561 158.38463L131.3401 158.38463L131.3401 162.53462L135.6741 162.53462L135.6741 165.85663L131.7581 165.85663L131.7581 169.86862L135.95511 169.86862L135.95511 173.18863L96.93911 173.18863C 103.793106 153.12663 123.51011 147.86862 123.51011 147.86862L123.51011 147.86862L123.51011 166.13162L110.64411 166.13162C 111.762115 163.36462 115.958115 161.01363 115.958115 161.01363L115.958115 161.01363L115.958115 162.25963L118.61411 162.25963L118.61411 153.95763C 118.61411 153.95763 108.82411 157.96962 102.67211 169.31563L102.67211 169.31563L127.42411 169.31563L127.42411 141.36563C 127.42411 141.36563 98.75711 144.82463 90.36611 177.47563L90.36611 177.47563L111.90111 177.47563L111.90111 181.90463L89.52811 181.90463L89.52811 195.46463L111.90211 195.46463L111.90211 199.89163L90.36711 199.89163C 98.75811 232.54562 127.42511 236.00262 127.42511 236.00262L127.42511 236.00262L127.42511 208.05362L102.67311 208.05463C 108.82511 219.40262 118.61511 223.41162 118.61511 223.41162L118.61511 223.41162L118.61511 215.10863L115.959114 215.10863L115.959114 216.35263C 115.959114 216.35263 111.762115 214.00462 110.64511 211.23563L110.64511 211.23563L123.51011 211.23563L123.51011 229.49963C 123.51011 229.49963 103.79211 224.24164 96.93911 204.17963L96.93911 204.17963L135.95612 204.17963L135.95612 207.50163L131.75911 207.50163L131.75911 211.51363L135.67511 211.51363L135.67511 214.83363L131.3401 214.83363L131.3401 218.98363L135.95511 218.98363L135.95511 223.41162L131.6201 223.41162L131.6201 236.69263C 131.6201 236.69263 134.1551 237.52463 138.3501 237.52463L138.3501 237.52463L138.4011 237.52463C 142.59709 237.52463 145.11809 236.69263 145.11809 236.69263L145.11809 236.69263L145.11809 223.41263L140.78308 223.41263L140.78308 218.98463L145.39809 218.98463L145.39809 214.83464L141.06409 214.83464L141.06409 211.51463L144.97708 211.51463L144.97708 207.50264L140.78308 207.50264L140.78308 204.18063L179.80008 204.18063C 172.94708 224.24364 153.23007 229.50064 153.23007 229.50064L153.23007 229.50064L153.23007 211.23663L166.09407 211.23663C 164.97607 214.00664 160.78107 216.35364 160.78107 216.35364L160.78107 216.35364L160.78107 215.10963L158.12506 215.10963L158.12506 223.41263C 158.12506 223.41263 167.91306 219.40263 174.06706 208.05463L174.06706 208.05463L149.31206 208.05463L149.31206 236.00262C 149.31206 236.00262 177.98006 232.54562 186.37106 199.89163L186.37106 199.89163L164.83606 199.89163L164.83606 195.46463L187.21005 195.46463zM135.53705 149.11363L135.53705 144.54863L141.20404 144.54863L141.20404 149.11363L138.05405 149.11363L135.53705 149.11363zM117.63505 177.61563L159.10205 177.61563L159.10205 181.76663L117.635056 181.76663L117.635056 177.61563zM141.20404 228.25464L141.20404 232.81863L135.53705 232.81863L135.53705 228.25464L138.05405 228.25464L141.20404 228.25464zM159.10204 199.75264L117.63504 199.75264L117.63504 195.60265L159.10204 195.60265L159.10204 199.75264zM93.86304 190.89864L93.86304 186.47064L182.87503 186.47064L182.87503 190.89864L93.86303 190.89864z" stroke="none" fill="#000000" fill-rule="nonzero" />
		</g>
	</g>
</g>
</svg>